<svg xmlns="http://www.w3.org/2000/svg" width="14" height="14" viewBox="0 0 14 14"><g><g opacity=".3"><path fill="#133215" d="M12.623 6.157c.31 0 .562.252.562.563v6.75a.562.562 0 0 1-.563.562H1.373a.562.562 0 0 1-.562-.562V6.72c0-.311.251-.563.563-.563h1.195V2.22a2.25 2.25 0 0 1 2.25-2.25h4.36a2.25 2.25 0 0 1 2.25 2.25v3.937zM7.49 10.323a.844.844 0 1 0-.985 0v.932c0 .077.064.14.14.14h.704c.077 0 .14-.063.14-.14zm2.672-8.103a.985.985 0 0 0-.985-.984h-4.36a.985.985 0 0 0-.984.984v3.938h6.329z"/></g></g></svg>