<svg xmlns="http://www.w3.org/2000/svg" width="31" height="31" viewBox="0 0 31 31"><g><g><g><path fill="#b5c775" d="M0 10c0-4.714 0-7.071 1.464-8.536C2.93 0 5.286 0 10 0h11c4.714 0 7.071 0 8.536 1.464C31 2.93 31 5.286 31 10v11c0 4.714 0 7.071-1.464 8.536C28.07 31 25.713 31 21 31H10c-4.714 0-7.071 0-8.536-1.464C0 28.07 0 25.713 0 21z"/></g><g><g/><g><path fill="#fff" d="M10 13a.75.75 0 1 0 0-1.5.75.75 0 0 0 0 1.5z"/></g><g><path fill="#fff" d="M10 16.75a.75.75 0 1 0 0-1.5.75.75 0 0 0 0 1.5z"/></g><g><path fill="#fff" d="M10 20.5a.75.75 0 1 0 0-1.5.75.75 0 0 0 0 1.5z"/></g><g><path fill="#fff" d="M22.045 15.25h-9.09a.705.705 0 0 0-.705.705v.09c0 .39.316.705.705.705h9.09c.39 0 .705-.316.705-.705v-.09a.705.705 0 0 0-.705-.705z"/></g><g><path fill="#fff" d="M22.045 19h-9.09a.705.705 0 0 0-.705.705v.09c0 .39.316.705.705.705h9.09c.39 0 .705-.316.705-.705v-.09a.705.705 0 0 0-.705-.705z"/></g><g><path fill="#fff" d="M22.045 11.5h-9.09a.705.705 0 0 0-.705.705v.09c0 .39.316.705.705.705h9.09c.39 0 .705-.316.705-.705v-.09a.705.705 0 0 0-.705-.705z"/></g></g></g></g></svg>