<svg width="18" height="18" viewBox="0 0 18 18" fill="none" xmlns="http://www.w3.org/2000/svg">
<path d="M15.9857 10.9875C16.6499 9.94576 17.0018 8.73551 16.9997 7.5C16.9997 3.91 14.0897 1 10.4997 1C9.21616 1 8.01966 1.372 7.01216 2.0135C6.34166 2.05111 5.678 2.16826 5.03516 2.3625C5.5238 1.84303 6.08372 1.39556 6.69816 1.0335C7.84261 0.35913 9.14629 0.00235729 10.4747 0H10.4997C14.6417 0 17.9997 3.358 17.9997 7.5C17.9997 7.5675 17.9987 7.6345 17.9972 7.7015L17.9962 7.7255C17.9604 8.98537 17.606 10.2156 16.9662 11.3015C16.6041 11.916 16.1567 12.4759 15.6372 12.9645C15.8277 12.333 15.9472 11.671 15.9857 10.9875Z" fill="#7A934F"/>
<path fill-rule="evenodd" clip-rule="evenodd" d="M9.886 8.3335C9.74808 7.94351 9.49266 7.60587 9.1549 7.36706C8.81714 7.12824 8.41366 7.00001 8 7V6.5H7V7C6.46957 7 5.96086 7.21071 5.58579 7.58579C5.21071 7.96086 5 8.46957 5 9C5 9.53043 5.21071 10.0391 5.58579 10.4142C5.96086 10.7893 6.46957 11 7 11V13C6.565 13 6.1945 12.7225 6.0565 12.3335C6.03603 12.2699 6.003 12.211 5.95936 12.1603C5.91573 12.1097 5.86239 12.0683 5.80248 12.0386C5.74257 12.0089 5.67732 11.9916 5.61059 11.9875C5.54386 11.9835 5.47699 11.9929 5.41396 12.0152C5.35092 12.0375 5.29299 12.0721 5.2436 12.1172C5.1942 12.1622 5.15434 12.2167 5.12637 12.2775C5.09841 12.3382 5.0829 12.4039 5.08078 12.4707C5.07865 12.5376 5.08995 12.6041 5.114 12.6665C5.25192 13.0565 5.50734 13.3941 5.8451 13.6329C6.18286 13.8718 6.58634 14 7 14V14.5H8V14C8.53043 14 9.03914 13.7893 9.41421 13.4142C9.78929 13.0391 10 12.5304 10 12C10 11.4696 9.78929 10.9609 9.41421 10.5858C9.03914 10.2107 8.53043 10 8 10V8C8.435 8 8.8055 8.2775 8.9435 8.6665C8.96397 8.73014 8.997 8.78903 9.04064 8.83969C9.08427 8.89034 9.13761 8.93173 9.19752 8.96141C9.25743 8.99109 9.32268 9.00845 9.38941 9.01247C9.45614 9.01649 9.52301 9.00709 9.58604 8.98481C9.64908 8.96254 9.70701 8.92786 9.7564 8.8828C9.8058 8.83775 9.84566 8.78325 9.87363 8.72253C9.90159 8.66181 9.9171 8.59609 9.91922 8.52927C9.92135 8.46245 9.91005 8.39588 9.886 8.3335ZM7 8C6.73478 8 6.48043 8.10536 6.29289 8.29289C6.10536 8.48043 6 8.73478 6 9C6 9.26522 6.10536 9.51957 6.29289 9.70711C6.48043 9.89464 6.73478 10 7 10V8ZM8 13C8.26522 13 8.51957 12.8946 8.70711 12.7071C8.89464 12.5196 9 12.2652 9 12C9 11.7348 8.89464 11.4804 8.70711 11.2929C8.51957 11.1054 8.26522 11 8 11V13Z" fill="#7A934F"/>
<path fill-rule="evenodd" clip-rule="evenodd" d="M15 10.5C15 14.642 11.642 18 7.5 18C3.358 18 0 14.642 0 10.5C0 6.358 3.358 3 7.5 3C11.642 3 15 6.358 15 10.5ZM14 10.5C14 14.09 11.09 17 7.5 17C3.91 17 1 14.09 1 10.5C1 6.91 3.91 4 7.5 4C11.09 4 14 6.91 14 10.5Z" fill="#7A934F"/>
</svg>
