<svg xmlns="http://www.w3.org/2000/svg" width="18" height="18" viewBox="0 0 18 18">
	<g>
		<g>
			<g>
				<path fill="#808080"
					d="M15.99 10.988a6.5 6.5 0 0 0-8.974-8.974 8.476 8.476 0 0 0-1.976.349 7.534 7.534 0 0 1 1.663-1.33A7.465 7.465 0 0 1 10.479 0h.026a7.5 7.5 0 0 1 7.497 7.702l-.001.024a7.46 7.46 0 0 1-1.03 3.576 7.53 7.53 0 0 1-1.329 1.663c.19-.632.31-1.294.348-1.977z" />
			</g>
			<g>
				<path fill="#808080"
					d="M9.886 8.334a.5.5 0 1 1-.942.333A1.001 1.001 0 0 0 8 8v2a2 2 0 1 1 0 4v.5H7V14a2 2 0 0 1-1.886-1.333.5.5 0 1 1 .942-.333c.138.389.509.666.944.666v-2a2 2 0 1 1 0-4v-.5h1V7a2 2 0 0 1 1.886 1.334zM7 8a1 1 0 0 0 0 2zm1 5a1 1 0 0 0 0-2z" />
			</g>
			<g>
				<path fill="#808080"
					d="M15 10.5a7.5 7.5 0 1 1-15 0 7.5 7.5 0 0 1 15 0zM7.5 4a6.5 6.5 0 1 0 0 13 6.5 6.5 0 0 0 0-13z" />
			</g>
		</g>
	</g>
</svg>