<svg xmlns="http://www.w3.org/2000/svg" width="16" height="16" viewBox="0 0 16 16"><g><g><g/><g><g><path fill="#585858" d="M4.71 6.542L3.34 7.914a3 3 0 1 0 4.243 4.243l1.828-1.829A3 3 0 0 0 8.582 5.5l-.586.586c-.06.06-.111.126-.154.199a2 2 0 0 1 .86 3.337L6.877 11.45a2.001 2.001 0 0 1-2.83-2.83l.793-.792a4.018 4.018 0 0 1-.128-1.287z"/></g><g><path fill="#585858" d="M6.589 4.677a3 3 0 0 0 .828 4.828l.775-.776a2 2 0 0 1-.896-3.346l1.827-1.828a2.001 2.001 0 0 1 2.83 2.83l-.793.792c.112.42.155.855.128 1.287l1.372-1.372a3 3 0 1 0-4.243-4.243z"/></g></g></g></g></svg>