<svg xmlns="http://www.w3.org/2000/svg" width="20" height="20" viewBox="0 0 20 20"><g><g><g/><g><path fill="#133215" d="M7.115 10.062a.833.833 0 1 1 .61 1.55 2.983 2.983 0 0 0-1.888 2.775v1.45a.833.833 0 0 0 .833.833h6.667a.833.833 0 0 0 .833-.833v-1.373a3.049 3.049 0 0 0-1.963-2.849.833.833 0 1 1 .593-1.557 4.715 4.715 0 0 1 3.037 4.406v1.373a2.5 2.5 0 0 1-2.5 2.5H6.67a2.5 2.5 0 0 1-2.5-2.5v-1.45a4.65 4.65 0 0 1 2.945-4.325zm2.888-8.392a3.333 3.333 0 0 1 3.334 3.333V6.67a3.333 3.333 0 1 1-6.667 0V5.003a3.333 3.333 0 0 1 3.333-3.333zm0 1.667a1.667 1.667 0 0 0-1.666 1.666V6.67a1.667 1.667 0 1 0 3.333 0V5.003a1.667 1.667 0 0 0-1.667-1.666z"/></g></g></g></svg>