<svg width="18" height="18" viewBox="0 0 18 18" fill="none" xmlns="http://www.w3.org/2000/svg">
<g clip-path="url(#clip0_1_134)">
<path d="M12.1646 1.47719L6.31242 7.32937C3.8636 9.78434 2.00915 12.7672 0.891111 16.0495C0.837793 16.2048 0.829301 16.3719 0.866609 16.5318C0.903918 16.6916 0.985515 16.8377 1.10205 16.9533L1.10511 16.9564C1.1862 17.0381 1.28265 17.103 1.3889 17.1473C1.49516 17.1916 1.60912 17.2144 1.72424 17.2145C1.82111 17.2144 1.91731 17.1985 2.00901 17.1672C5.29133 16.0492 8.27421 14.1948 10.7292 11.7459L16.5812 5.89376C17.1668 5.30809 17.4959 4.51375 17.4959 3.68549C17.4959 2.85722 17.1669 2.06288 16.5812 1.47721C16.2912 1.18721 15.9469 0.957173 15.568 0.800227C15.1891 0.643281 14.783 0.562502 14.3729 0.5625C13.5446 0.562497 12.7503 0.891521 12.1646 1.47719ZM9.93351 10.9504C7.72159 13.1566 5.05747 14.8567 2.12488 15.9335C3.20169 13.0009 4.90178 10.3368 7.1079 8.12485L10.5941 4.63872L13.4196 7.4643L9.93351 10.9504ZM15.7857 5.09828L14.2151 6.66882L11.3895 3.84324L12.9601 2.27267C13.1455 2.0867 13.3658 1.93911 13.6084 1.83834C13.8509 1.73757 14.1109 1.68561 14.3735 1.68542C14.6361 1.68523 14.8962 1.73682 15.1389 1.83724C15.3816 1.93765 15.6021 2.08492 15.7878 2.27063C15.9735 2.45634 16.1207 2.67683 16.2212 2.9195C16.3216 3.16217 16.3731 3.42226 16.373 3.68489C16.3728 3.94751 16.3208 4.20752 16.22 4.45005C16.1193 4.69257 15.9717 4.91285 15.7857 5.09828Z" fill="#7A934F"/>
</g>
<defs>
<clipPath id="clip0_1_134">
<rect width="18" height="18" fill="white"/>
</clipPath>
</defs>
</svg>
