<svg width="19" height="19" viewBox="0 0 19 19" fill="none" xmlns="http://www.w3.org/2000/svg">
<path d="M8.60948 9.5C8.60948 9.73621 8.70331 9.96274 8.87034 10.1298C9.03736 10.2968 9.2639 10.3906 9.50011 10.3906C9.73631 10.3906 9.96285 10.2968 10.1299 10.1298C10.2969 9.96274 10.3907 9.73621 10.3907 9.5C10.3907 9.26379 10.2969 9.03726 10.1299 8.87023C9.96285 8.70321 9.73631 8.60938 9.50011 8.60938C9.2639 8.60938 9.03736 8.70321 8.87034 8.87023C8.70331 9.03726 8.60948 9.26379 8.60948 9.5V9.5ZM12.3204 9.5C12.3204 9.73621 12.4143 9.96274 12.5813 10.1298C12.7483 10.2968 12.9748 10.3906 13.211 10.3906C13.4473 10.3906 13.6738 10.2968 13.8408 10.1298C14.0078 9.96274 14.1017 9.73621 14.1017 9.5C14.1017 9.26379 14.0078 9.03726 13.8408 8.87023C13.6738 8.70321 13.4473 8.60938 13.211 8.60938C12.9748 8.60938 12.7483 8.70321 12.5813 8.87023C12.4143 9.03726 12.3204 9.26379 12.3204 9.5ZM4.89854 9.5C4.89854 9.73621 4.99238 9.96274 5.1594 10.1298C5.32643 10.2968 5.55296 10.3906 5.78917 10.3906C6.02538 10.3906 6.25191 10.2968 6.41893 10.1298C6.58596 9.96274 6.67979 9.73621 6.67979 9.5C6.67979 9.26379 6.58596 9.03726 6.41893 8.87023C6.25191 8.70321 6.02538 8.60938 5.78917 8.60938C5.55296 8.60938 5.32643 8.70321 5.1594 8.87023C4.99238 9.03726 4.89854 9.26379 4.89854 9.5V9.5ZM17.1669 6.27891C16.7476 5.28252 16.1464 4.38818 15.3801 3.62002C14.6191 2.8563 13.7158 2.24924 12.7212 1.8332C11.7007 1.40459 10.6171 1.1875 9.50011 1.1875H9.463C8.33858 1.19307 7.24942 1.41572 6.2252 1.85361C5.23913 2.27392 4.34425 2.88206 3.59044 3.64414C2.83155 4.41045 2.23595 5.30107 1.82403 6.29375C1.39727 7.32168 1.18204 8.41455 1.18761 9.53896C1.1939 10.8275 1.49875 12.0971 2.07823 13.248V16.0684C2.07823 16.2947 2.16815 16.5118 2.32822 16.6719C2.48828 16.832 2.70538 16.9219 2.93175 16.9219H5.75391C6.90485 17.5014 8.17443 17.8062 9.463 17.8125H9.50196C10.6134 17.8125 11.6914 17.5973 12.7064 17.1761C13.6959 16.765 14.5959 16.165 15.356 15.4097C16.1223 14.6508 16.7253 13.7639 17.1465 12.7749C17.5844 11.7507 17.807 10.6615 17.8126 9.53711C17.8182 8.40713 17.5992 7.31055 17.1669 6.27891V6.27891ZM14.3633 14.4059C13.0626 15.6936 11.337 16.4023 9.50011 16.4023H9.46856C8.34971 16.3968 7.23829 16.1185 6.25675 15.5952L6.10089 15.5117H3.48839V12.8992L3.40489 12.7434C2.88165 11.7618 2.60333 10.6504 2.59776 9.53154C2.59034 7.68164 3.29727 5.94492 4.59425 4.63682C5.88936 3.32871 7.62052 2.60508 9.47042 2.59766H9.50196C10.4297 2.59766 11.3296 2.77764 12.1775 3.13389C13.0051 3.48086 13.7473 3.97998 14.3856 4.61826C15.022 5.25469 15.523 5.99873 15.8699 6.82627C16.2299 7.6835 16.4099 8.59268 16.4062 9.53154C16.395 11.3796 15.6695 13.1107 14.3633 14.4059V14.4059Z" fill="#808080"/>
</svg>
