<svg width="21" height="21" viewBox="0 0 21 21" fill="none" xmlns="http://www.w3.org/2000/svg">
<path d="M4.59375 7C4.59375 6.36182 4.84726 5.74978 5.29852 5.29852C5.74978 4.84726 6.36182 4.59375 7 4.59375C7.63818 4.59375 8.25022 4.84726 8.70148 5.29852C9.15274 5.74978 9.40625 6.36182 9.40625 7C9.40625 7.63818 9.15274 8.25022 8.70148 8.70148C8.25022 9.15274 7.63818 9.40625 7 9.40625C6.36182 9.40625 5.74978 9.15274 5.29852 8.70148C4.84726 8.25022 4.59375 7.63818 4.59375 7ZM7 3.5C6.07174 3.5 5.1815 3.86875 4.52513 4.52513C3.86875 5.1815 3.5 6.07174 3.5 7C3.5 7.92826 3.86875 8.8185 4.52513 9.47487C5.1815 10.1313 6.07174 10.5 7 10.5C7.92826 10.5 8.8185 10.1313 9.47487 9.47487C10.1313 8.8185 10.5 7.92826 10.5 7C10.5 6.07174 10.1313 5.1815 9.47487 4.52513C8.8185 3.86875 7.92826 3.5 7 3.5ZM13.3438 7.875C13.3438 7.46889 13.5051 7.07941 13.7922 6.79224C14.0794 6.50508 14.4689 6.34375 14.875 6.34375C15.2811 6.34375 15.6706 6.50508 15.9578 6.79224C16.2449 7.07941 16.4062 7.46889 16.4062 7.875C16.4062 8.28111 16.2449 8.67059 15.9578 8.95776C15.6706 9.24492 15.2811 9.40625 14.875 9.40625C14.4689 9.40625 14.0794 9.24492 13.7922 8.95776C13.5051 8.67059 13.3438 8.28111 13.3438 7.875ZM14.875 5.25C14.1788 5.25 13.5111 5.52656 13.0188 6.01884C12.5266 6.51113 12.25 7.17881 12.25 7.875C12.25 8.57119 12.5266 9.23887 13.0188 9.73116C13.5111 10.2234 14.1788 10.5 14.875 10.5C15.5712 10.5 16.2389 10.2234 16.7312 9.73116C17.2234 9.23887 17.5 8.57119 17.5 7.875C17.5 7.17881 17.2234 6.51113 16.7312 6.01884C16.2389 5.52656 15.5712 5.25 14.875 5.25ZM14.875 17.0625C13.923 17.0625 13.1591 16.9085 12.5492 16.6591L12.6306 16.5541C12.8468 16.2693 13.0126 15.9841 13.1394 15.7137C13.5857 15.869 14.1527 15.9688 14.8746 15.9688C16.7453 15.9688 17.5753 15.2981 17.9646 14.7302C18.1864 14.4039 18.3253 14.0285 18.3693 13.6364C18.3718 13.6108 18.3736 13.5852 18.3746 13.5594V13.4531C18.3746 13.1512 18.1296 12.9062 17.8277 12.9062H13.5026C13.4127 12.5019 13.2241 12.1261 12.9535 11.8125H17.8281C18.2632 11.8125 18.6805 11.9854 18.9882 12.293C19.2959 12.6007 19.4688 13.018 19.4688 13.4531V13.5831L19.4674 13.6207C19.4657 13.6513 19.4631 13.6924 19.4587 13.7428C19.3966 14.3184 19.1936 14.8699 18.8676 15.3484C18.2442 16.2562 17.0507 17.0625 14.8741 17.0625H14.875ZM2.95312 11.8125C2.518 11.8125 2.1007 11.9854 1.79303 12.293C1.48535 12.6007 1.3125 13.018 1.3125 13.4531V14.0232L1.31425 14.0656C1.316 14.1006 1.3195 14.147 1.32562 14.2047C1.33831 14.3194 1.36237 14.4769 1.40962 14.6641C1.53501 15.1573 1.75817 15.6203 2.06588 16.0256C2.83456 17.0389 4.29888 17.9375 7 17.9375C9.70156 17.9375 11.1659 17.0389 11.9337 16.0256C12.2416 15.6202 12.4649 15.1571 12.5904 14.6637C12.6376 14.4769 12.6617 14.3194 12.6744 14.2043C12.681 14.1441 12.6854 14.0837 12.6875 14.0232V13.4531C12.6875 13.2377 12.6451 13.0243 12.5626 12.8253C12.4802 12.6262 12.3593 12.4454 12.207 12.293C12.0546 12.1407 11.8738 12.0198 11.6747 11.9374C11.4757 11.8549 11.2623 11.8125 11.0469 11.8125H2.95312ZM2.40669 14.0105L2.40625 13.9965V13.4531C2.40625 13.1512 2.65125 12.9062 2.95312 12.9062H11.0469C11.3488 12.9062 11.5938 13.1512 11.5938 13.4531V13.9965L11.5933 14.0105C11.5834 14.1404 11.5623 14.2692 11.5303 14.3955C11.4408 14.7468 11.2816 15.0764 11.0622 15.365C10.5451 16.0475 9.43906 16.8438 7 16.8438C4.56094 16.8438 3.45494 16.0475 2.93781 15.365C2.71847 15.0766 2.55928 14.747 2.46969 14.3959C2.43768 14.2695 2.4166 14.1405 2.40669 14.0105Z" fill="#808080"/>
</svg>
