<svg xmlns="http://www.w3.org/2000/svg" width="18" height="18" viewBox="0 0 18 18">
	<g>
		<g>
			<g />
			<g>
				<path fill="#808080"
					d="M12.16 1.475a3.123 3.123 0 0 1 4.417 4.416l-5.852 5.852a22.72 22.72 0 0 1-8.72 5.422.884.884 0 0 1-.62-.02.873.873 0 0 1-.284-.191l-.003-.003a.874.874 0 0 1-.21-.904 22.721 22.721 0 0 1 5.42-8.72l5.853-5.852zm1.256 5.987L10.59 4.636 7.104 8.122a21.601 21.601 0 0 0-4.983 7.809 21.6 21.6 0 0 0 7.809-4.983zm2.366-2.366a1.998 1.998 0 1 0-2.826-2.826l-1.57 1.57 2.825 2.826z" />
			</g>
		</g>
	</g>
</svg>